# Blender v2.79 (sub 0) OBJ File: 'CastleTileSet.blend'
# www.blender.org
mtllib earth_1111.mtl
v -1.000000 -1.000000 1.000000
v -1.000000 1.000000 1.000000
v -1.000000 -1.000000 -1.000000
v -1.000000 1.000000 -1.000000
v 1.000000 -1.000000 1.000000
v 1.000000 1.000000 1.000000
v 1.000000 -1.000000 -1.000000
v 1.000000 1.000000 -1.000000
vn 0.0000 1.0000 0.0000
vn -1.0000 0.0000 0.0000
vn 0.0000 0.0000 -1.0000
vn 1.0000 0.0000 0.0000
vn 0.0000 0.0000 1.0000
vn 0.0000 -1.0000 0.0000
usemtl grass
s off
f 4//1 6//1 8//1
f 4//1 2//1 6//1
usemtl earth
f 2//2 3//2 1//2
f 4//3 7//3 3//3
f 8//4 5//4 7//4
f 6//5 1//5 5//5
f 7//6 1//6 3//6
f 2//2 4//2 3//2
f 4//3 8//3 7//3
f 8//4 6//4 5//4
f 6//5 2//5 1//5
f 7//6 5//6 1//6
